<?xml version="1.0" encoding="UTF-8" standalone="no"?>
<!-- Created with Inkscape (http://www.inkscape.org/) -->

<svg
   width="3.5in"
   height="2in"
   viewBox="0 0 88.9 50.8"
   version="1.1"
   id="svg1"
   xml:space="preserve"
   inkscape:version="1.4.3 (0d15f75, 2025-12-25)"
   sodipodi:docname="Business card UJ.svg"
   xmlns:inkscape="http://www.inkscape.org/namespaces/inkscape"
   xmlns:sodipodi="http://sodipodi.sourceforge.net/DTD/sodipodi-0.dtd"
   xmlns:xlink="http://www.w3.org/1999/xlink"
   xmlns="http://www.w3.org/2000/svg"
   xmlns:svg="http://www.w3.org/2000/svg"><sodipodi:namedview
     id="namedview1"
     pagecolor="#faf7e2"
     bordercolor="#0c0c0c"
     borderopacity="0.90588235"
     inkscape:showpageshadow="2"
     inkscape:pageopacity="0.0"
     inkscape:pagecheckerboard="0"
     inkscape:deskcolor="#d1d1d1"
     inkscape:document-units="mm"
     inkscape:zoom="1.9477379"
     inkscape:cx="114.49179"
     inkscape:cy="125.01682"
     inkscape:window-width="1920"
     inkscape:window-height="991"
     inkscape:window-x="-9"
     inkscape:window-y="-9"
     inkscape:window-maximized="1"
     inkscape:current-layer="svg1"
     showgrid="false"
     showguides="false" /><defs
     id="defs1"><linearGradient
       id="linearGradient21"
       inkscape:collect="always"><stop
         style="stop-color:#0b2228;stop-opacity:1;"
         offset="0"
         id="stop21" /><stop
         style="stop-color:#0b2228;stop-opacity:0;"
         offset="1"
         id="stop22" /></linearGradient><linearGradient
       id="linearGradient18"
       inkscape:collect="always"><stop
         style="stop-color:#d4aa00;stop-opacity:1;"
         offset="0"
         id="stop18" /><stop
         style="stop-color:#d4aa00;stop-opacity:0;"
         offset="1"
         id="stop19" /></linearGradient><inkscape:path-effect
       effect="spiro"
       id="path-effect3"
       is_visible="true"
       lpeversion="1" /><clipPath
       clipPathUnits="userSpaceOnUse"
       id="clipPath13"><rect
         style="fill:#d4aa00;fill-opacity:0.868965"
         id="rect13"
         width="294.03568"
         height="283.21228"
         x="-476.22955"
         y="-43.293594" /></clipPath><linearGradient
       inkscape:collect="always"
       xlink:href="#linearGradient18"
       id="linearGradient19"
       x1="27.252709"
       y1="26.445289"
       x2="61.205223"
       y2="23.320938"
       gradientUnits="userSpaceOnUse"
       gradientTransform="translate(-0.13584134,-0.27168269)" /><linearGradient
       inkscape:collect="always"
       xlink:href="#linearGradient21"
       id="linearGradient22"
       x1="52.834988"
       y1="19.664015"
       x2="44.520416"
       y2="24.418461"
       gradientUnits="userSpaceOnUse" /></defs><path
     id="rect1"
     style="fill:#ffeeaa;fill-opacity:1;fill-rule:nonzero;stroke:none;stroke-width:0.266568"
     d="M 2.0302361e-4,-0.135706 V 50.261151 H 89.24796 V -0.135706 Z M 30.090889,13.130771 c 0.29308,-0.008 0.633754,0.225016 0.832306,0.75237 0.08491,-0.228567 0.271346,-0.365232 0.488083,-0.37774 0.288778,-0.01667 0.630918,0.187059 0.857942,0.686563 0.09822,0.216097 0.19711,0.432388 0.271506,0.658065 0.23303,0.706866 -0.04794,1.131799 -0.426877,1.159126 -0.06863,0.498067 -0.719203,0.736501 -1.366427,0.10985 -0.506718,-0.505934 -0.892837,-1.145695 -1.131016,-1.819264 -0.215841,-0.727718 0.08777,-1.158357 0.474483,-1.16897 z"
     sodipodi:nodetypes="cccccccssscssc" /><rect
     style="fill:#0b1728;stroke-width:0.264583"
     id="rect2"
     width="88.976082"
     height="9.5088959"
     x="0.13584132"
     y="41.839134" /><path
     style="fill:#000000;stroke-width:0.189829"
     d="m 33.009448,7.8787979 c 1.499211,1.5396952 2.737167,3.3029321 4.161191,4.9078161 0.183105,0.206359 0.413746,0.368883 0.580632,0.588938 0.492869,0.649896 0.73283,1.46414 1.161264,2.159438 0.427999,0.694596 1.040036,1.238904 1.548349,1.864971 1.080052,1.330253 2.027874,2.78336 3.096703,4.122567 0.273058,0.342131 0.596134,0.640876 0.870947,0.981562 0.61525,0.76273 2.085115,2.920249 2.419298,3.435472 0.310135,0.478146 0.565812,0.9909 0.870947,1.472345 0.275806,0.435166 0.580632,0.850688 0.870949,1.276032 0.451601,0.719813 0.901929,1.44045 1.354805,2.159439 0.729106,1.157535 1.460154,2.266291 2.419298,3.239158 1.60374,1.626682 -0.229647,-0.357094 0.870949,1.177875 0.134156,0.187108 0.337837,0.313049 0.483858,0.490783 0.04131,0.05027 -0.0204,0.134232 0,0.196313 0.04359,0.132629 0.857949,2.35575 1.161263,2.35575"
     id="path2" /><path
     style="fill:#000000;stroke-width:0.264583"
     d="m 38.986465,18.20274 4.211082,-2.173462"
     id="path3"
     inkscape:original-d="m 38.986465,18.20274 c 1.313132,-0.724487 2.762107,-1.448975 4.211082,-2.173462"
     inkscape:path-effect="#path-effect3" /><path
     style="fill:#0b2228;stroke-width:0.345635"
     id="path8"
     d="m 47.555073,9.8154733 c 0.468931,-0.668587 1.085869,-1.1417336 1.746029,-1.51713 0.82463,-0.3145135 1.708287,-0.3092446 2.567503,-0.3292303 -0.957211,0.00492 -1.914516,-0.0016 -2.871638,0.014744 -0.193806,0.0033 0.387453,0.014893 0.581106,0.024411 0.36856,0.018121 0.736674,0.048195 1.105346,0.062859 1.41773,0.05639 3.847372,-0.097137 4.56908,-0.1208339 1.356798,-0.3025387 2.646859,-0.901159 3.848055,-1.6842541 0.126578,-0.085725 0.253157,-0.1714499 0.379733,-0.2571754 0,0 -3.473766,-0.4162593 -3.473766,-0.4162593 v 0 c -0.115087,0.083269 -0.230186,0.1665388 -0.345276,0.2498081 -1.174962,0.7734519 -2.447882,1.3168014 -3.789375,1.5415517 0.918669,0.024433 1.837537,0.040371 2.75601,0.073295 0.178289,0.00639 -0.356744,0.010121 -0.535082,0.00632 -0.107158,-0.00227 -1.015413,-0.056831 -1.115182,-0.062734 -1.896428,-0.1122187 -0.331681,-0.032931 -4.531011,-0.050169 -0.891775,0.033684 -1.818555,0.051112 -2.638033,0.5098095 -0.666178,0.457625 -1.271318,1.0082994 -1.832048,1.6280497 z" /><path
     style="fill:url(#linearGradient22);stroke-width:0.244828"
     id="path9"
     d="m 51.595077,8.9381724 c 0.328918,1.1307406 0.563258,2.2875116 0.80642,3.4402036 0.273649,1.224547 0.408895,2.470877 0.563989,3.714653 0.191074,1.271879 0.198027,2.557674 0.19226,3.841049 0.0019,1.451749 -0.166243,2.887283 -0.428959,4.310584 -0.17842,0.746801 -0.303847,1.515101 -0.569829,2.236955 -0.128612,0.349049 -0.222334,0.507701 -0.392979,0.843877 -0.355638,0.667915 -0.751989,1.310478 -1.348874,1.770558 -0.282884,0.173528 -0.140116,0.09374 -0.427846,0.240201 -1.147218,0.604321 -0.319406,2.279302 0.827813,1.674981 v 0 c 0.478198,-0.257116 0.237338,-0.114263 0.720348,-0.432549 0.332495,-0.274441 0.396322,-0.306014 0.687938,-0.632875 0.466711,-0.523113 0.818197,-1.14249 1.158438,-1.75645 0.239166,-0.482337 0.323843,-0.617496 0.505118,-1.119413 0.289094,-0.800446 0.437308,-1.646898 0.629337,-2.474721 0.28128,-1.536363 0.462898,-3.086054 0.460872,-4.652618 0.0059,-1.366654 -0.0059,-2.735765 -0.207219,-4.090249 C 54.609337,14.555185 54.466463,13.255407 54.181176,11.97822 53.924159,10.759885 53.675664,9.5371921 53.323006,8.3435328 52.915731,7.0821108 51.187801,7.6767516 51.595077,8.9381724 Z" /><path
     id="path12"
     style="fill:url(#linearGradient19);stroke-width:0.341557"
     d="m 27.265144,13.854165 c -0.09148,0.230133 -0.145839,0.512913 -0.145839,0.848241 -0.02015,2.076317 0.08389,4.157833 0.340102,6.205757 0.0638,0.510063 0.147111,1.015386 0.220469,1.52303 0.462424,2.730337 1.180956,5.361245 2.034916,7.902782 0.386138,1.090977 0.806943,2.162593 1.371803,3.10152 0.365494,0.607543 0.47811,0.716375 0.918903,1.293568 1.048483,1.276523 2.267372,2.222617 3.508123,3.094995 0.834097,0.553135 1.787251,0.806774 2.711134,0.594312 0.26947,-0.06198 0.531926,-0.168944 0.798128,-0.253384 0.269611,-0.127299 0.550558,-0.216364 0.808954,-0.38171 1.677321,-1.073296 2.969291,-3.030727 4.155857,-4.920888 0.728561,-1.220723 1.249471,-2.554615 1.596828,-4.048722 0.09732,-0.236533 0.117796,-0.530775 0.221039,-0.761787 1.71e-4,-3.87e-4 4.39e-4,-0.0014 5.68e-4,-0.0017 h 5.7e-4 v 5.44e-4 c -2.7e-4,0.0058 -0.0078,0.03758 -0.0073,0.04405 v 5.44e-4 l 5.7e-4,5.42e-4 h 5.7e-4 v -5.42e-4 l 5.69e-4,-5.44e-4 c 0.02499,-0.03943 0.04112,-0.08853 0.06152,-0.132675 0.03273,-0.0805 0.06525,-0.16093 0.09798,-0.241422 0.741985,-1.880194 -1.197223,-3.318945 -1.939208,-1.438748 -0.0073,0.02123 -0.0148,0.04239 -0.02221,0.06362 -0.224234,0.486724 -0.375808,1.011335 -0.516135,1.55239 -0.253189,1.095649 -0.632482,2.100998 -1.168994,2.996034 -0.588106,0.944304 -1.193357,1.856695 -1.870278,2.685553 -0.387114,0.474002 -0.863825,1.027847 -1.34047,1.350118 -0.196271,0.132711 -0.412075,0.202289 -0.618109,0.30341 -0.143663,0.05699 -0.284474,0.131411 -0.431252,0.170736 -0.523573,0.140268 -1.06071,0.05531 -1.536441,-0.271329 C 35.46147,34.394703 34.421222,33.600819 33.520395,32.531731 33.164602,32.076947 33.117892,32.046987 32.82481,31.575283 32.358716,30.825121 32.034382,29.943305 31.716201,29.065902 30.93072,26.74271 30.274975,24.333526 29.841936,21.838993 29.52916,19.709482 29.31487,17.552958 29.316686,15.378762 c -0.287947,0.134187 -0.722641,0.07308 -1.155892,-0.33114 -0.269147,-0.251111 -0.506381,-0.524612 -0.687041,-0.841716 -0.06859,-0.117456 -0.139723,-0.233992 -0.208504,-0.351803 z" /><circle
     id="path13"
     style="fill:#d4aa00;stroke:#000000;stroke-width:0.264583"
     cx="97.805763"
     cy="35.182911"
     r="0.0090470333" /><circle
     id="path18"
     style="fill:#ffeeaa;stroke:#000000;stroke-width:0.264583"
     cx="-10.867308"
     cy="15.485912"
     r="0.0090470333" /><text
     xml:space="preserve"
     style="font-style:normal;font-variant:normal;font-weight:normal;font-stretch:normal;font-size:4.58611px;line-height:0px;font-family:'Copperplate Gothic Light';-inkscape-font-specification:'Copperplate Gothic Light, ';writing-mode:lr-tb;direction:ltr;fill:#000000;stroke-width:0.247544;opacity:0.65"
     x="26.180016"
     y="24.041313"
     id="text18"
     transform="scale(0.96702122,1.0341035)"><tspan
       sodipodi:role="line"
       id="tspan18"
       style="font-style:normal;font-variant:normal;font-weight:normal;font-stretch:normal;font-size:4.58611px;font-family:'Copperplate Gothic Light';-inkscape-font-specification:'Copperplate Gothic Light, ';fill:#000000;stroke-width:0.247544;line-height:0px"
       x="26.180016"
       y="24.041313">INVITATION CARDS</tspan></text><path
     sodipodi:type="star"
     style="opacity:0.65;fill:#aa8800;stroke-width:0.264583"
     id="path22"
     inkscape:flatsided="false"
     sodipodi:sides="5"
     sodipodi:cx="4.3469229"
     sodipodi:cy="38.986465"
     sodipodi:r1="5.5761175"
     sodipodi:r2="2.788059"
     sodipodi:arg1="0.97603707"
     sodipodi:arg2="1.6043556"
     inkscape:rounded="0"
     inkscape:randomized="0"
     d="M 7.4712738,43.605071 4.2533752,41.772955 0.91984539,43.385127 1.6679064,39.758569 -0.89547837,37.086382 2.7847473,36.677162 4.5340182,33.413488 6.0604618,36.787134 9.7049554,37.442259 6.9681237,39.936507 Z"
     inkscape:transform-center-x="-0.057815636"
     inkscape:transform-center-y="-0.47718609"
     transform="translate(1.2225721,1.9017788)" /><path
     sodipodi:type="star"
     style="opacity:0.65;fill:#aa8800;stroke-width:0.264583"
     id="path23"
     inkscape:flatsided="false"
     sodipodi:sides="5"
     sodipodi:cx="4.3469229"
     sodipodi:cy="38.986465"
     sodipodi:r1="5.5761175"
     sodipodi:r2="2.788059"
     sodipodi:arg1="0.97603707"
     sodipodi:arg2="1.6043556"
     inkscape:rounded="0"
     inkscape:randomized="0"
     d="M 7.4712738,43.605071 4.2533752,41.772955 0.91984539,43.385127 1.6679064,39.758569 -0.89547837,37.086382 2.7847473,36.677162 4.5340182,33.413488 6.0604618,36.787134 9.7049554,37.442259 6.9681237,39.936507 Z"
     inkscape:transform-center-x="-0.093957185"
     inkscape:transform-center-y="-0.19396407"
     transform="matrix(0.57484918,0.04102768,-0.03525956,0.54883073,8.5001696,14.772494)" /><path
     sodipodi:type="star"
     style="opacity:0.65;fill:#aa8800;stroke-width:0.264583"
     id="path24"
     inkscape:flatsided="false"
     sodipodi:sides="5"
     sodipodi:cx="4.3469229"
     sodipodi:cy="38.986465"
     sodipodi:r1="5.5761175"
     sodipodi:r2="2.788059"
     sodipodi:arg1="0.97603707"
     sodipodi:arg2="1.6043556"
     inkscape:rounded="0"
     inkscape:randomized="0"
     d="M 7.4712738,43.605071 4.2533752,41.772955 0.91984539,43.385127 1.6679064,39.758569 -0.89547837,37.086382 2.7847473,36.677162 4.5340182,33.413488 6.0604618,36.787134 9.7049554,37.442259 6.9681237,39.936507 Z"
     inkscape:transform-center-x="-0.068770972"
     inkscape:transform-center-y="-0.12940738"
     transform="matrix(0.42075551,0.02737243,-0.02580791,0.36616335,2.0346353,20.802119)" /><text
     xml:space="preserve"
     style="font-style:normal;font-variant:normal;font-weight:normal;font-stretch:normal;font-size:2.83913px;line-height:0px;font-family:'Copperplate Gothic Light';-inkscape-font-specification:'Copperplate Gothic Light, ';writing-mode:lr-tb;direction:ltr;opacity:0.65;fill:#e6e6e6;fill-opacity:1;stroke-width:0.163796"
     x="64.317467"
     y="46.821609"
     id="text24"
     transform="scale(0.99392819,1.0061089)"><tspan
       sodipodi:role="line"
       id="tspan24"
       style="fill:#e6e6e6;fill-opacity:1;stroke-width:0.163796"
       x="64.317467"
       y="46.821609">📞</tspan></text><text
     xml:space="preserve"
     style="font-style:normal;font-variant:normal;font-weight:normal;font-stretch:normal;font-size:3.77811px;line-height:0px;font-family:'Cambria Math';-inkscape-font-specification:'Cambria Math';writing-mode:lr-tb;direction:ltr;opacity:1;fill:#e6e6e6;fill-opacity:1;stroke-width:0.236132"
     x="72.248817"
     y="44.579018"
     id="text25"
     transform="scale(0.93492702,1.0696022)"><tspan
       sodipodi:role="line"
       id="tspan25"
       style="font-style:normal;font-variant:normal;font-weight:normal;font-stretch:normal;font-size:3.77811px;font-family:'Cambria Math';-inkscape-font-specification:'Cambria Math';fill:#e6e6e6;fill-opacity:1;stroke-width:0.236132"
       x="72.248817"
       y="44.579018">9876543210</tspan></text><path
     sodipodi:type="star"
     style="opacity:0.65;fill:#aa8800;stroke-width:0.264583"
     id="path25"
     inkscape:flatsided="false"
     sodipodi:sides="5"
     sodipodi:cx="4.3469229"
     sodipodi:cy="38.986465"
     sodipodi:r1="5.5761175"
     sodipodi:r2="2.788059"
     sodipodi:arg1="0.97603707"
     sodipodi:arg2="1.6043556"
     inkscape:rounded="0"
     inkscape:randomized="0"
     d="M 7.4712738,43.605071 4.2533752,41.772955 0.91984539,43.385127 1.6679064,39.758569 -0.89547837,37.086382 2.7847473,36.677162 4.5340182,33.413488 6.0604618,36.787134 9.7049554,37.442259 6.9681237,39.936507 Z"
     inkscape:transform-center-x="-0.057815636"
     inkscape:transform-center-y="-0.47718609"
     transform="translate(77.022042,-31.786874)" /><path
     sodipodi:type="star"
     style="opacity:0.65;fill:#aa8800;stroke-width:0.264583"
     id="path26"
     inkscape:flatsided="false"
     sodipodi:sides="5"
     sodipodi:cx="4.3469229"
     sodipodi:cy="38.986465"
     sodipodi:r1="5.5761175"
     sodipodi:r2="2.788059"
     sodipodi:arg1="0.97603707"
     sodipodi:arg2="1.6043556"
     inkscape:rounded="0"
     inkscape:randomized="0"
     d="M 7.4712738,43.605071 4.2533752,41.772955 0.91984539,43.385127 1.6679064,39.758569 -0.89547837,37.086382 2.7847473,36.677162 4.5340182,33.413488 6.0604618,36.787134 9.7049554,37.442259 6.9681237,39.936507 Z"
     inkscape:transform-center-x="-0.093957185"
     inkscape:transform-center-y="-0.19396407"
     transform="matrix(0.57484918,0.04102768,-0.03525956,0.54883073,73.839856,-12.803298)" /><path
     sodipodi:type="star"
     style="opacity:0.65;fill:#aa8800;stroke-width:0.264583"
     id="path27"
     inkscape:flatsided="false"
     sodipodi:sides="5"
     sodipodi:cx="4.3469229"
     sodipodi:cy="38.986465"
     sodipodi:r1="5.5761175"
     sodipodi:r2="2.788059"
     sodipodi:arg1="0.97603707"
     sodipodi:arg2="1.6043556"
     inkscape:rounded="0"
     inkscape:randomized="0"
     d="M 7.4712738,43.605071 4.2533752,41.772955 0.91984539,43.385127 1.6679064,39.758569 -0.89547837,37.086382 2.7847473,36.677162 4.5340182,33.413488 6.0604618,36.787134 9.7049554,37.442259 6.9681237,39.936507 Z"
     inkscape:transform-center-x="-0.068770972"
     inkscape:transform-center-y="-0.12940738"
     transform="matrix(0.42075551,0.02737243,-0.02580791,0.36616335,84.762013,-11.392279)" /><text
     xml:space="preserve"
     style="font-style:normal;font-variant:normal;font-weight:normal;font-stretch:normal;font-size:2.53315px;line-height:0px;font-family:Arial;-inkscape-font-specification:Arial;writing-mode:lr-tb;direction:ltr;opacity:1;fill:#e6e6e6;fill-opacity:1;stroke-width:0.237482"
     x="11.133828"
     y="48.904083"
     id="text28"
     transform="scale(1.0016136,0.99838902)"><tspan
       sodipodi:role="line"
       id="tspan28"
       style="font-style:normal;font-variant:normal;font-weight:normal;font-stretch:normal;font-size:2.53315px;font-family:Arial;-inkscape-font-specification:Arial;stroke-width:0.237482"
       x="11.133828"
       y="48.904083">Saravanampatti.</tspan></text><text
     xml:space="preserve"
     style="font-style:normal;font-variant:normal;font-weight:normal;font-stretch:normal;font-size:3.12719px;line-height:0px;font-family:Cambria;-inkscape-font-specification:Cambria;writing-mode:lr-tb;direction:ltr;opacity:1;fill:#e6e6e6;fill-opacity:1;stroke-width:0.293174"
     x="37.962727"
     y="50.5438"
     id="text1024"
     transform="scale(1.0606628,0.94280666)"><tspan
       sodipodi:role="line"
       id="tspan1024"
       style="font-style:normal;font-variant:normal;font-weight:normal;font-stretch:normal;font-family:Cambria;-inkscape-font-specification:Cambria;stroke-width:0.293174"
       x="37.962727"
       y="50.5438">🌐www.uj.in</tspan></text><text
     xml:space="preserve"
     style="font-style:normal;font-variant:normal;font-weight:normal;font-stretch:normal;font-size:3.175px;line-height:0px;font-family:'Cambria Math';-inkscape-font-specification:'Cambria Math';writing-mode:lr-tb;direction:ltr;opacity:1;fill:#ffffff;fill-opacity:1;stroke:none;stroke-width:0.264999;stroke-dasharray:none;stroke-opacity:1"
     x="11.13899"
     y="45.642693"
     id="text1061"><tspan
       sodipodi:role="line"
       id="tspan1061"
       style="font-style:normal;font-variant:normal;font-weight:normal;font-stretch:normal;font-family:'Cambria Math';-inkscape-font-specification:'Cambria Math';fill:#ffffff;fill-opacity:1;stroke:none;stroke-width:0.265;stroke-opacity:1"
       x="11.13899"
       y="45.642693">Sathy main road,</tspan></text><path
     style="opacity:1;fill:#ffeeaa;fill-opacity:1;fill-rule:nonzero;stroke:none;stroke-width:0.264999;stroke-dasharray:none;stroke-opacity:1"
     id="path1079"
     d="m 29.043765,14.320086 c 0.304593,0.49013 0.696253,0.920432 1.004612,1.407927 0.06024,0.09523 0.466384,0.825113 0.482235,0.853445 0.290041,0.534822 0.58556,1.072995 0.809654,1.640127 0.04321,0.10936 0.08182,0.221145 0.108458,0.335676 0.0051,0.02194 -0.0074,0.08708 -0.01506,0.06588 -0.01757,-0.0487 -0.01124,-0.102925 -0.01685,-0.154387 0.306033,-0.649554 0.06535,-0.387899 0.770787,-0.737169 -1.413108,0.05588 -1.334087,2.054315 0.07902,1.998438 v 0 c 0.9716,-0.363135 0.614818,-0.05178 1.113848,-0.881736 0.01347,-0.15025 0.04634,-0.300013 0.04043,-0.450751 -0.03614,-0.920914 -0.752346,-1.984978 -1.145141,-2.793042 -0.153477,-0.273987 -0.41651,-0.753127 -0.587409,-1.021251 -0.310605,-0.487304 -0.699088,-0.920381 -1.006123,-1.410085 -0.810999,-1.15857 -2.449463,-0.01164 -1.638464,1.146924 z" /><path
     style="opacity:1;fill:#ffeeaa;fill-opacity:1;fill-rule:nonzero;stroke:none;stroke-width:0.264999;stroke-dasharray:none;stroke-opacity:1"
     id="path1080"
     d="m 31.059233,14.797221 c 0.252299,0.50124 0.503886,1.002161 0.735817,1.513198 0.585576,1.287283 2.406071,0.459152 1.820492,-0.828132 v 0 c -0.219863,-0.48235 -0.447397,-0.961217 -0.699354,-1.427847 -0.525225,-1.313064 -2.382179,-0.570283 -1.856955,0.742781 z" /></svg>
