<?xml version="1.0" encoding="UTF-8" standalone="no"?>
<!-- Created with Inkscape (http://www.inkscape.org/) -->

<svg
   width="210mm"
   height="297mm"
   viewBox="0 0 210 297"
   version="1.1"
   id="svg1"
   xml:space="preserve"
   inkscape:version="1.4.3 (0d15f75, 2025-12-25)"
   sodipodi:docname="Mobile UI mockup.svg"
   xmlns:inkscape="http://www.inkscape.org/namespaces/inkscape"
   xmlns:sodipodi="http://sodipodi.sourceforge.net/DTD/sodipodi-0.dtd"
   xmlns:xlink="http://www.w3.org/1999/xlink"
   xmlns="http://www.w3.org/2000/svg"
   xmlns:svg="http://www.w3.org/2000/svg"><sodipodi:namedview
     id="namedview1"
     pagecolor="#111111"
     bordercolor="#000000"
     borderopacity="1"
     inkscape:showpageshadow="2"
     inkscape:pageopacity="0.0"
     inkscape:pagecheckerboard="0"
     inkscape:deskcolor="#d1d1d1"
     inkscape:document-units="mm"
     inkscape:zoom="0.68862935"
     inkscape:cx="396.43968"
     inkscape:cy="561.25984"
     inkscape:window-width="1920"
     inkscape:window-height="991"
     inkscape:window-x="-9"
     inkscape:window-y="-9"
     inkscape:window-maximized="1"
     inkscape:current-layer="layer1" /><defs
     id="defs1"><linearGradient
       id="linearGradient49"
       inkscape:collect="always"><stop
         style="stop-color:#ff1973;stop-opacity:0.5716846;"
         offset="0.57310319"
         id="stop48" /><stop
         style="stop-color:#ff2a7f;stop-opacity:0;"
         offset="1"
         id="stop49" /></linearGradient><inkscape:perspective
       sodipodi:type="inkscape:persp3d"
       inkscape:vp_x="-61.257225 : 124.94923 : 1"
       inkscape:vp_y="0 : 754.62574 : 0"
       inkscape:vp_z="112.47194 : 118.41754 : 1"
       inkscape:persp3d-origin="102.0666 : 106.42191 : 1"
       id="perspective11" /><linearGradient
       id="linearGradient4895"
       inkscape:collect="always"><stop
         style="stop-color:#ff2a7f;stop-opacity:0.86896506;"
         offset="0"
         id="stop4895" /><stop
         style="stop-color:#ff2a7f;stop-opacity:0;"
         offset="1"
         id="stop4896" /></linearGradient><linearGradient
       id="linearGradient4892"
       inkscape:collect="always"><stop
         style="stop-color:#ff2a7f;stop-opacity:1;"
         offset="0"
         id="stop4893" /><stop
         style="stop-color:#ff2a7f;stop-opacity:0;"
         offset="1"
         id="stop4894" /></linearGradient><linearGradient
       inkscape:collect="always"
       xlink:href="#linearGradient4892"
       id="linearGradient4894"
       x1="163.69589"
       y1="68.058739"
       x2="157.06815"
       y2="76.991791"
       gradientUnits="userSpaceOnUse" /><linearGradient
       inkscape:collect="always"
       xlink:href="#linearGradient4895"
       id="linearGradient4896"
       x1="84.867538"
       y1="99.764503"
       x2="85.136101"
       y2="78.602333"
       gradientUnits="userSpaceOnUse" /><symbol
       id="FlowSymbols.svg:PunchedTape"><title
         id="title16">Punch Tape</title><desc
         id="desc16">Punched tape.</desc><path
         d="m 15,50 c 50,20 70,-20 120,0 v 50 C 85,80 65,120 15,100 Z"
         style="stroke-width:2"
         id="path16" /></symbol><symbol
       id="LogicSymbols.svg:Buffer"><title
         id="title12">Buffer</title><path
         d="M 25,30 75,50 25,70 V 50 Z"
         id="path13" /></symbol><symbol
       id="FlowSymbols.svg:Extract"><title
         id="title13">Extract</title><desc
         id="desc13">Removal of one or more specific sets of times from a set. (ISO)</desc><path
         d="m 35,115 40,-70 40,70 z"
         style="stroke-width:2"
         id="path13-7" /></symbol><radialGradient
       inkscape:collect="always"
       xlink:href="#linearGradient49"
       id="radialGradient46"
       cx="94.90168"
       cy="140.89665"
       fx="94.90168"
       fy="140.89665"
       r="55.08836"
       gradientTransform="matrix(1.1590079,-0.61067496,0.74193123,1.4081208,-119.62575,2.8676544)"
       gradientUnits="userSpaceOnUse" /></defs><g
     inkscape:label="Layer 1"
     inkscape:groupmode="layer"
     id="layer1"><rect
       style="fill:#f4d7ee;stroke:url(#radialGradient46);stroke-width:1.07627;stroke-dasharray:none;paint-order:stroke fill markers"
       id="rect1"
       width="109.10045"
       height="168.26993"
       x="43.040974"
       y="52.262196" /><use
       xlink:href="#LogicSymbols.svg:Buffer"
       style="fill:#000000;stroke:#000000;stroke-width:2"
       id="use1-1"
       transform="matrix(0.19693154,0,0,0.30495228,111.97576,156.49754)" /><ellipse
       style="fill:#1a1a1a;stroke-width:1.059;stroke-dasharray:none;paint-order:stroke fill markers"
       id="path3"
       cx="94.325356"
       cy="58.401035"
       rx="4.0342817"
       ry="4.2263904" /><ellipse
       style="fill:#b3b3b3;stroke-width:1.059;stroke-dasharray:none;paint-order:stroke fill markers"
       id="path4"
       cx="94.325348"
       cy="58.401031"
       rx="2.1131952"
       ry="1.9210867" /><g
       inkscape:label="Layer 1"
       id="layer1-8"
       transform="matrix(0.45570604,0,0,0.45807949,51.843909,59.612158)"><path
         id="text1"
         style="font-style:normal;font-variant:normal;font-weight:normal;font-stretch:normal;font-size:51.3891px;font-family:'Imprint MT Shadow';-inkscape-font-specification:'Imprint MT Shadow';writing-mode:lr-tb;direction:ltr;fill:url(#linearGradient4896);fill-opacity:1;stroke-width:0.267651"
         transform="scale(1.0115968,0.98853613)"
         d="m 58.860031,91.401995 c -2.492505,0 -4.850794,0.451663 -7.075648,1.354987 -2.208125,0.886596 -4.157016,2.157942 -5.846566,3.814036 -1.672822,1.656094 -2.986091,3.638392 -3.9396,5.946882 -0.953509,2.29177 -1.430352,4.77591 -1.430352,7.45243 0,2.47578 0.434818,4.82609 1.304685,7.05095 0.886596,2.22485 2.149536,4.18206 3.788902,5.87161 1.639366,1.67282 3.588256,2.97762 5.846566,3.9144 2.258311,0.93678 4.72607,1.40517 7.402586,1.40517 3.446014,0 6.490253,-0.68586 9.133312,-2.05757 2.411859,-1.26699 4.51057,-3.09138 6.295595,-5.47274 -0.100145,-0.3883 -0.207871,-0.77442 -0.318764,-1.16053 l -0.656941,-0.36749 c -1.137519,1.55572 -2.367248,2.86052 -3.688777,3.9144 -1.32153,1.03715 -2.710036,1.81502 -4.165391,2.33359 -1.438627,0.50185 -2.935583,0.75277 -4.491307,0.75277 -2.525962,0 -4.784616,-0.71095 -6.775274,-2.13285 -1.97393,-1.43863 -3.512911,-3.43765 -4.616974,-5.99707 -1.104063,-2.55942 -1.656144,-5.48686 -1.656144,-8.78232 0,-2.35868 0.276041,-4.57517 0.828072,-6.64947 0.56876,-2.0743 1.355367,-3.830765 2.35906,-5.269392 1.003694,-1.455355 2.216305,-2.567783 3.638204,-3.337281 1.421899,-0.786227 3.002906,-1.17934 4.742641,-1.17934 1.288073,0 2.492382,0.209103 3.613173,0.627308 1.12079,0.401478 2.19123,1.020422 3.211652,1.856834 1.020422,0.819682 1.982412,1.856833 2.885736,3.11145 0.920053,1.237889 1.773083,2.676521 2.55931,4.315881 h 1.556019 v -1.46424 c -0.0091,-0.12829 -0.01757,-0.25684 -0.02503,-0.38527 -0.0084,-0.18164 -0.0035,-0.33819 0.02503,-0.48669 v -3.02049 c -0.05168,-0.39474 -0.02691,-0.201848 -0.08071,-0.624172 -0.03062,-0.240354 0.0064,-0.428137 0.08071,-0.559351 v -4.575693 h -2.057664 c -0.869868,0.936781 -1.965727,1.405171 -3.287257,1.405171 -0.518575,0 -0.978813,-0.04182 -1.38029,-0.125461 -0.384749,-0.10037 -1.137123,-0.301109 -2.257914,-0.602217 -1.120791,-0.301108 -2.091085,-0.518575 -2.910768,-0.652401 -0.802954,-0.150554 -1.673102,-0.225831 -2.609882,-0.225831 z m 29.709445,0 c -1.50554,0 -2.87744,0.276016 -4.115329,0.828048 -1.22116,0.552031 -2.257877,1.304802 -3.111017,2.258311 -0.853139,0.953508 -1.51418,2.049208 -1.982571,3.287096 -0.46839,1.237889 -0.702405,2.52596 -0.702405,3.86422 0,1.40517 0.259435,2.7267 0.77801,3.96459 0.535303,1.22116 1.313096,2.27504 2.333518,3.16164 1.020421,0.86986 2.257942,1.55572 3.713297,2.05757 0.936781,0.31783 2.52609,0.66076 4.767672,1.02878 2.241582,0.36803 4.0483,0.7695 5.420015,1.20444 1.371714,0.4182 2.551114,1.16261 3.538079,2.23322 0.986965,1.05387 1.480415,2.53432 1.480415,4.44134 0,2.04084 -0.744582,3.71367 -2.233394,5.01847 -1.488811,1.3048 -3.278413,1.9572 -5.369441,1.9572 -1.672822,0 -3.278738,-0.43493 -4.817734,-1.3048 -1.522268,-0.86987 -2.936194,-2.19976 -4.240996,-3.98968 -1.288073,-1.80665 -2.391724,-4.03151 -3.311777,-6.67457 h -1.331249 c -0.019,0.31304 -0.05888,0.62371 -0.136905,0.90333 0.310974,0.47806 0.512883,1.16101 0.512883,2.04868 v 1.39681 c 0,1.0557 -0.285924,1.82165 -0.700873,2.29804 v 6.10005 h 1.430353 c 0.786226,-1.02042 1.848363,-1.53063 3.186621,-1.53063 0.802955,0 1.956935,0.26765 3.462475,0.80296 1.50554,0.5353 2.568188,0.89496 3.187132,1.07897 0.618945,0.18401 1.53891,0.27601 2.76007,0.27601 2.157941,0 4.115134,-0.51857 5.871597,-1.55572 1.756468,-1.05388 3.119548,-2.45069 4.089788,-4.19042 0.97024,-1.73974 1.45538,-3.6133 1.45538,-5.62069 0,-2.09103 -0.52666,-3.96459 -1.58054,-5.62068 -1.05387,-1.6561 -2.53474,-2.95254 -4.441752,-3.88932 -1.03715,-0.50184 -2.442262,-0.91168 -4.215454,-1.22952 -1.756463,-0.31784 -3.755171,-0.70259 -5.996753,-1.15425 -2.224854,-0.45166 -3.906006,-1.12079 -5.043525,-2.00739 -1.13752,-0.88659 -1.706718,-2.1663 -1.706718,-3.839125 0,-1.187704 0.309764,-2.275039 0.928708,-3.262004 0.635672,-0.986965 1.472097,-1.756464 2.509247,-2.308496 1.03715,-0.568759 2.157918,-0.853139 3.36235,-0.853139 2.425593,0 4.533261,0.811319 6.32318,2.433957 1.806648,1.605909 3.529827,3.947858 5.169192,7.025857 h 1.756265 L 100.4884,91.728196 h -1.906967 c -0.802955,0.401477 -1.655985,0.602216 -2.559309,0.602216 -0.719314,0 -1.873805,-0.150554 -3.462986,-0.451662 -1.572453,-0.317836 -2.902328,-0.476755 -3.989662,-0.476755 z m 20.851984,0.677494 v 1.380079 c 1.78992,0.117097 3.08607,0.393113 3.88903,0.828047 0.80295,0.434934 1.20456,1.271346 1.20456,2.509234 v 25.242901 c 0,1.10406 -0.15047,1.94047 -0.45158,2.50923 -0.28438,0.56876 -0.77783,0.96187 -1.48042,1.17934 -0.63797,0.18228 -1.56576,0.30256 -2.78306,0.3607 0.004,0.12496 0.008,0.24986 0.0112,0.37482 0.0124,0.34081 0.0202,0.68101 0.0194,1.02094 h 19.48906 c 2.81034,0 5.40316,-0.43493 7.77856,-1.3048 2.39214,-0.86986 4.44118,-2.09103 6.14746,-3.66348 1.70627,-1.57245 3.01124,-3.42092 3.91456,-5.54541 0.92006,-2.14121 1.37978,-4.45807 1.37978,-6.95058 0,-2.54269 -0.44312,-4.9181 -1.32971,-7.12622 -0.8866,-2.20813 -2.14954,-4.115146 -3.78891,-5.721056 -1.62263,-1.622637 -3.57152,-2.877255 -5.84656,-3.763851 -2.25831,-0.886596 -4.73386,-1.329894 -7.42711,-1.329894 z m -55.655017,0.627308 c -1.605909,1.020422 -3.002718,2.024116 -4.190422,3.011081 -1.170976,0.986965 -2.324956,2.291768 -3.462475,3.914406 -0.986965,1.421896 -1.756456,3.052906 -2.308487,4.893006 -0.552031,1.84011 -0.828072,3.59657 -0.828072,5.26939 0,2.02412 0.317555,3.97296 0.953228,5.84652 0.6524,1.85683 1.614391,3.57984 2.885736,5.16902 1.288073,1.58918 2.84366,2.95253 4.667036,4.09005 1.840105,1.13752 3.872536,1.99903 6.097389,2.58451 -3.395829,-0.38474 -6.323316,-1.41353 -8.782365,-3.08635 -2.459049,-1.68955 -4.307282,-3.80568 -5.54517,-6.34837 -1.237889,-2.55941 -1.856904,-5.34467 -1.856904,-8.35575 0,-1.25461 0.133868,-2.53432 0.40152,-3.83913 0.28438,-1.32152 0.677683,-2.55105 1.17953,-3.68857 0.518575,-1.13752 1.145894,-2.208126 1.881935,-3.211819 0.736042,-1.003694 1.58077,-1.907019 2.534279,-2.709973 1.656094,-1.371715 3.780368,-2.551056 6.373242,-3.538021 z m 71.738827,0.752771 c 2.29176,0 4.28268,0.250923 5.97223,0.75277 1.68955,0.501846 3.22853,1.346623 4.61697,2.534326 3.4962,2.977624 5.24429,7.452426 5.24429,13.424406 0,2.00738 -0.2008,3.83076 -0.60228,5.47013 -0.38475,1.62264 -1.01207,3.07799 -1.88194,4.36607 -0.86986,1.27134 -2.07417,2.45905 -3.61317,3.56311 -1.3048,0.93678 -2.6767,1.59754 -4.11533,1.98229 -1.43863,0.36802 -3.06945,0.55204 -4.89283,0.55204 -1.68955,0 -2.91097,-0.15892 -3.66374,-0.47676 -0.75277,-0.33456 -1.22911,-0.82805 -1.42984,-1.48045 -0.20074,-0.66913 -0.3014,-1.73137 -0.3014,-3.18672 v -20.24953 c 0,-2.191368 0.0586,-3.713662 0.17573,-4.566802 0.13383,-0.869867 0.51831,-1.530633 1.15399,-1.982295 0.6524,-0.46839 1.76486,-0.702585 3.33732,-0.702585 z m -11.91842,0.100369 c 1.539,0.01673 2.49218,0.434934 2.8602,1.254617 0.36802,0.802955 0.55222,2.199763 0.55222,4.190421 V 122.1903 c 0,1.38844 -0.25114,2.39214 -0.75298,3.01108 -0.50185,0.60222 -1.38809,0.90333 -2.65944,0.90333 0.46839,-0.21747 0.81967,-0.47676 1.05387,-0.77787 0.23419,-0.30111 0.40958,-0.7444 0.52667,-1.32989 0.1171,-0.58549 0.17573,-1.39681 0.17573,-2.43396 V 97.424158 c 0,-1.120791 -0.11726,-1.948839 -0.35146,-2.484142 -0.21746,-0.552032 -0.68549,-1.012058 -1.40481,-1.380079 z m -43.410176,0.100369 0.150698,4.265699 c -0.552031,-0.685858 -1.112416,-1.329895 -1.681175,-1.932111 -0.56876,-0.618944 -1.279619,-1.254617 -2.132758,-1.907018 0.368021,0.06691 0.761324,0.100369 1.17953,0.100369 0.869867,0 1.697479,-0.175646 2.483705,-0.526939 z m 62.379716,0 c 0.98697,0.184011 1.89863,0.409842 2.73504,0.677494 0.83641,0.267651 1.63963,0.660765 2.40912,1.17934 1.32153,0.853139 2.4423,1.999023 3.36236,3.437651 0.92005,1.421899 1.6143,3.086359 2.08269,4.993379 0.48512,1.90701 0.72744,4.01477 0.72744,6.32327 0,3.21182 -0.50176,5.97198 -1.50545,8.28047 -0.98696,2.3085 -2.33344,4.09005 -4.03972,5.34467 -1.70628,1.25462 -3.63026,1.99066 -5.77148,2.20813 2.17467,-0.92006 3.98139,-2.10776 5.42002,-3.56312 1.43863,-1.47208 2.49246,-3.21182 3.16159,-5.2192 0.68586,-2.00739 1.02883,-4.30752 1.02883,-6.9004 0,-8.64849 -3.20353,-14.235722 -9.61044,-16.761684 z m -38.19041,0.05018 c 0.702585,0.18401 1.354813,0.276016 1.957029,0.276016 0.552031,0 1.104112,-0.09201 1.656143,-0.276016 l 0.828072,4.792637 c -0.18401,-0.18401 -0.551894,-0.652401 -1.103925,-1.405171 -0.552032,-0.75277 -1.079204,-1.396807 -1.581051,-1.93211 -0.501846,-0.535303 -1.087139,-1.020422 -1.756268,-1.455356 z m -14.478234,4.993376 c -0.01673,0.200739 -0.02503,0.42657 -0.02503,0.677493 0.01673,0.250924 0.02503,0.560381 0.02503,0.928415 0,1.99066 0.610202,3.74712 1.831363,5.26939 1.237888,1.52227 3.044607,2.59287 5.420014,3.21182 0.06691,0.0167 1.396788,0.2593 3.989662,0.72769 2.592875,0.45166 4.634119,0.9535 6.122931,1.50553 1.50554,0.53531 2.760174,1.37171 3.763874,2.50923 1.02042,1.12079 1.53047,2.66815 1.53047,4.64209 0,1.90701 -0.68595,3.57147 -2.05766,4.99337 0.68586,-1.33826 1.02883,-2.6096 1.02883,-3.81403 0,-1.62264 -0.45193,-3.03618 -1.35526,-4.24061 -0.886578,-1.20443 -2.132417,-2.09939 -3.738326,-2.68488 -0.869868,-0.35129 -2.450874,-0.71095 -4.74264,-1.07897 -2.275039,-0.38475 -4.00652,-0.71095 -5.194224,-0.9786 -1.187704,-0.28438 -2.274749,-0.76114 -3.261714,-1.43027 -0.736042,-0.50184 -1.397084,-1.14588 -1.982571,-1.93211 -0.585488,-0.80295 -1.028609,-1.64773 -1.329717,-2.53431 -0.301108,-0.90333 -0.451583,-1.79829 -0.451583,-2.68489 0,-0.78623 0.142172,-1.815013 0.426551,-3.086358 z m 0,20.701178 c 0.401478,1.00369 0.777665,1.81501 1.128957,2.43396 0.368021,0.60221 0.668971,1.06224 0.903166,1.38008 0.250923,0.3011 0.65253,0.77786 1.204561,1.43026 -0.853139,-0.0335 -1.488761,0.0418 -1.906967,0.22584 -0.401477,0.18401 -0.844598,0.59385 -1.329717,1.22952 z" /><path
         style="fill:#ff2a7f;fill-opacity:0.868965;stroke-width:0.267651"
         id="path1"
         d="m 48.601178,60.588543 c 1.87531,-2.045661 4.257615,-3.605422 6.748899,-4.851035 0.767327,-0.383654 1.56604,-0.704149 2.349059,-1.056222 3.76566,-1.520682 7.603139,-3.074487 11.640916,-3.766799 0.971945,-0.166647 1.955511,-0.260429 2.933264,-0.390644 4.38592,-0.342476 8.817332,-0.157974 13.179904,0.385162 1.962488,0.244327 5.537085,0.854811 7.459387,1.172014 6.212566,1.038567 12.359213,2.409505 18.554243,3.537363 5.10101,0.928682 5.36488,0.928039 10.42329,1.684592 5.49621,0.577535 11.12066,1.239022 16.61098,0.230626 2.69003,-0.494072 3.11792,-0.777772 5.57582,-1.712386 2.61927,-1.140962 5.06166,-2.655263 6.94901,-4.781542 0.69119,-1.101931 1.11848,-2.346986 1.55534,-3.561725 0,0 -3.4932,-1.885072 -3.4932,-1.885072 v 0 c -0.40969,1.175462 -0.8508,2.35466 -1.49767,3.428175 -1.77195,2.110128 -4.10627,3.623987 -6.63782,4.751173 -2.39371,0.91753 -2.83026,1.2036 -5.45354,1.689084 -5.41145,1.001485 -10.96502,0.381354 -16.38388,-0.19186 -4.88781,-0.725003 -5.46004,-0.766561 -10.38801,-1.677188 -6.24831,-1.15461 -12.438928,-2.595317 -18.709047,-3.63972 -1.963961,-0.326424 -5.51932,-0.939652 -7.520815,-1.186053 -4.394212,-0.540964 -8.853929,-0.69514 -13.269519,-0.345998 -1.006401,0.124812 -2.019506,0.205869 -3.019209,0.374436 -4.0334,0.680103 -7.894013,2.35219 -11.658461,3.84729 -0.794031,0.356835 -1.601698,0.686014 -2.382094,1.070504 -2.563142,1.262822 -4.998848,2.835804 -7.019215,4.839203 z" /><path
         style="fill:#ff2a7f;fill-opacity:0.868965;stroke-width:0.267651"
         id="path2"
         d="m 54.902456,185.9733 c 0.879452,-2.37734 1.854304,-4.61039 3.789381,-6.36991 0.479519,-0.43601 1.02302,-0.79959 1.534528,-1.19939 3.752375,-2.59397 8.258489,-3.43905 12.689082,-4.21807 4.682203,-0.75978 9.4219,-1.22223 14.171872,-1.23086 3.195465,-0.006 5.163952,0.16359 8.350903,0.35695 7.692118,0.47193 15.259458,1.94101 22.804498,3.39702 4.48071,0.89284 8.8831,2.23579 13.4347,2.75602 3.19234,0.0486 6.24131,-0.93555 9.19167,-2.0223 2.93375,-1.12645 5.59474,-2.7943 7.8486,-4.94045 0.62521,-0.64914 1.10958,-1.40904 1.5426,-2.18893 0,0 -3.50233,-1.95796 -3.50233,-1.95796 v 0 c -0.39246,0.75458 -0.83186,1.4927 -1.4167,2.12315 -2.17495,2.14751 -4.79352,3.77562 -7.68886,4.84717 -2.92728,1.04949 -5.9636,1.98369 -9.12069,1.84972 -4.46988,-0.53082 -8.81267,-1.76109 -13.21855,-2.63189 -7.53355,-1.42063 -15.08712,-2.86549 -22.763169,-3.3084 -3.128123,-0.18151 -5.252613,-0.3516 -8.39069,-0.34562 -4.796523,0.009 -9.582417,0.45279 -14.315203,1.19451 -4.51644,0.75622 -9.086242,1.63797 -12.879419,4.31846 -1.383948,1.08772 -1.765326,1.26377 -2.869598,2.60393 -1.245289,1.5113 -1.874438,3.34063 -2.714925,5.07118 z" /><path
         id="path3-8"
         style="fill:#ff2a7f;fill-opacity:0.868965;stroke-width:0.314607"
         d="m 76.305937,60.157888 c -0.801164,5.537296 -1.055799,11.167973 -1.260388,16.792535 0.05419,-0.06481 0.108466,-0.129754 0.160713,-0.196099 0.617837,-0.353615 0.948594,-0.622998 1.335319,-0.650367 0.386725,-0.02737 0.828998,0.187099 1.670183,0.801424 0.07283,0.05319 0.138235,0.125512 0.197403,0.213676 0.231267,-4.836934 0.572293,-9.668923 1.455726,-14.378378 z m 1.767334,19.212184 c -0.0104,0.0099 -0.10311,0.160909 -0.144178,0.25048 0.04634,-0.0767 0.09471,-0.152197 0.136426,-0.231804 0.0053,-0.01011 0.0078,-0.01615 0.0083,-0.01812 v -5.49e-4 z m -3.338298,9.865361 c -1.81e-4,0.01271 -3.37e-4,0.02518 -5.17e-4,0.0379 0.0034,-0.004 0.0069,-0.0077 0.01034,-0.01153 -0.0032,-0.0087 -0.0066,-0.01767 -0.0098,-0.02637 z m 0.869714,3.242495 c 0.0013,0.0273 0.0028,0.054 0.0041,0.08129 0.0034,-0.0014 0.0064,-0.0026 0.0098,-0.0038 -0.0047,-0.026 -0.0092,-0.05148 -0.01395,-0.07745 z M 74.7019,93.543563 c -3.2e-5,0.212322 1.4e-5,0.424864 5.17e-4,0.637184 0.01366,0.0056 0.02741,0.01189 0.04082,0.01923 -0.0048,-0.08773 -0.0096,-0.175391 -0.01447,-0.263112 -0.0094,-0.131064 -0.01843,-0.262192 -0.02687,-0.393297 z m 1.130164,4.65693 c -0.0031,0.0051 -0.0061,0.01011 -0.0093,0.01541 -0.0022,0.0514 -0.0044,0.10298 -0.0067,0.15436 0.0056,-0.0566 0.01077,-0.11306 0.01602,-0.16974 z m 2.408638,7.116677 c -0.02812,0.13163 -0.05532,0.26341 -0.08165,0.3955 0.03592,0.0572 0.07036,0.11717 0.103869,0.17962 -0.0076,-0.19169 -0.01484,-0.38342 -0.02222,-0.57512 z m -2.226737,20.9996 c -0.0039,9.4e-4 -0.0079,0.002 -0.01189,0.003 7.45e-4,0.0219 0.0013,0.044 0.0021,0.0659 0.0032,-0.0231 0.0066,-0.0461 0.0098,-0.0691 z m 3.338297,7.81758 c -0.549621,1.87145 -2.215248,2.15051 -3.098002,0.83768 0.051,2.08137 0.09517,4.16329 0.133325,6.2455 0.101565,5.84297 0.109422,11.68724 0.08682,17.53134 l 3.394108,2.33011 c -0.100491,-5.89616 -0.197974,-11.79238 -0.30179,-17.68843 -0.065,-3.08572 -0.134764,-6.17132 -0.214458,-9.2562 z" /><path
         id="path4-2"
         style="fill:#ff2a7f;fill-opacity:0.868965;stroke-width:0.342219"
         d="m 106.19714,62.764976 c -0.1697,5.61914 -0.0376,11.251476 0.0212,16.873704 0.005,0.659428 0.0105,1.318676 0.0181,1.977989 0.21096,-0.04192 0.44611,-0.05797 0.70487,-0.04255 0.11782,0.007 0.23517,0.01651 0.3514,0.02919 0.19138,-0.149549 0.39942,-0.223132 0.60564,-0.223087 0.40771,8.9e-5 0.80784,0.286992 1.0542,0.839462 0.0449,0.03566 0.089,0.07335 0.13281,0.113064 0.21634,0.226231 0.39355,0.443225 0.54002,0.663788 3e-5,-0.197774 1.5e-4,-0.395492 5.2e-4,-0.593277 -0.0404,-5.543975 -0.19894,-11.117762 0.15193,-16.643321 z m 0.0853,21.931741 c 0.009,0.472564 0.0176,0.945058 0.0274,1.417541 0.0284,-0.46463 0.0575,-0.928999 0.0894,-1.393225 -0.0397,-0.0072 -0.0786,-0.01552 -0.11679,-0.02432 z m 3.42408,6.152804 c -0.018,0.01887 -0.0385,0.04284 -0.062,0.07356 -0.007,0.01573 -0.0138,0.03104 -0.0207,0.0468 0.033,-0.01189 0.0613,-0.0274 0.0847,-0.04437 -5.1e-4,-0.02542 -10e-4,-0.05057 -0.002,-0.07599 z m 0.11421,4.648336 c -0.064,0.455935 -0.10759,0.915827 -0.12093,1.379849 0.0436,0.442661 0.11758,0.881405 0.20309,1.317855 -0.0292,-0.899001 -0.0565,-1.798486 -0.0822,-2.697704 z m 1.00872,33.830693 c -0.0737,0.28467 -0.1566,0.56621 -0.23719,0.84796 -0.6965,2.43483 -2.52577,2.22008 -2.72904,0.448 -0.11378,0.13933 -0.2396,0.24527 -0.37207,0.31791 10e-4,0.14505 0.002,0.29018 0.004,0.43523 0.0384,6.27182 0.0219,12.54371 -0.0253,18.81521 -0.0203,3.73717 -0.005,7.47428 -0.0222,11.21146 l 3.53518,2.87763 c -0.0151,-3.74609 0.004,-7.49152 -0.0108,-11.23758 -0.0421,-6.30846 -0.0627,-12.61733 -0.0992,-18.92586 -0.011,-1.5969 -0.0248,-3.19342 -0.0429,-4.78996 z" /><ellipse
         id="path8"
         style="fill:#ff2a7f;stroke:#000000;stroke-width:0.267651"
         cx="209.39417"
         cy="153.3027"
         rx="0.052371249"
         ry="0.051177375" /><path
         style="fill:#ff2a7f;fill-opacity:0.868965;stroke-width:0.264583"
         id="path24"
         d="m 106.34652,80.573485 c -0.0889,0.899252 -0.16136,1.799862 -0.20217,2.702615 -0.0395,1.155994 -0.0221,2.31249 -0.0118,3.468772 -2.6e-4,0.251463 -5.3e-4,0.502926 -7.9e-4,0.754388 0,0 3.4487,1.75727 3.4487,1.75727 v 0 c -2e-4,-0.2516 -2.7e-4,-0.5032 -5.3e-4,-0.7548 0.0124,-1.143265 0.0222,-2.286789 0.053,-3.429696 0.0344,-0.888791 0.0781,-1.779294 0.21507,-2.659311 z" /><path
         style="fill:#ff2a7f;fill-opacity:0.868965;stroke-width:0.264583"
         id="path26"
         d="m 107.18013,127.56259 c 0.0482,1.44566 0.0507,2.89254 0.0502,4.33888 -5.3e-4,1.08392 -0.0171,2.16774 -0.0315,3.25154 0,0 3.49199,1.77926 3.49199,1.77926 v 0 c -0.0144,-1.09452 -0.0309,-2.18904 -0.0315,-3.28368 -5.3e-4,-1.42929 0.001,-2.85916 0.0502,-4.28776 z" /><circle
         id="path27"
         style="fill:#ff2a7f;stroke:#000000;stroke-width:0.264583"
         cx="226.31166"
         cy="123.61562"
         r="0.036187869" /><circle
         id="path28"
         style="fill:#ff2a7f;stroke:#000000;stroke-width:0.264583"
         cx="77.157875"
         cy="79.87471"
         r="0.036187869" /><path
         style="fill:#ff2a7f;fill-opacity:0.868965;stroke-width:0.264583"
         id="path29"
         d="m 75.126537,71.663482 c 0.03843,1.33109 0.03577,2.663254 0.03341,3.99483 -2.54e-4,1.021874 -0.03364,2.043608 -0.01923,3.065418 -0.03715,0.949087 -0.156181,1.892011 -0.221713,2.839347 -0.0074,0.12863 -0.01476,0.257257 -0.02215,0.385887 0,0 3.496453,1.802939 3.496453,1.802939 v 0 c 0.0051,-0.127892 0.01013,-0.255781 0.01521,-0.38367 0.0518,-0.957061 0.148153,-1.910386 0.223176,-2.865762 0.01471,-1.028335 -0.01934,-2.056617 -0.01923,-3.085018 -0.0024,-1.320221 -0.0054,-2.641068 0.0334,-3.960786 z" /><path
         style="fill:#ff2a7f;fill-opacity:0.868965;stroke-width:0.264583"
         id="path30"
         d="m 79.989142,140.563 c -0.129421,-0.74869 -0.186418,-1.50721 -0.22596,-2.26517 0.04016,-0.64434 0.138176,-1.28645 0.266584,-1.91909 0.200168,-0.82651 0.373216,-1.65822 0.456131,-2.50503 0.02392,-0.31764 -0.01516,-0.63292 -0.0517,-0.94753 0,0 -3.543472,-1.74755 -3.543472,-1.74755 v 0 c 0.04284,0.291 0.09203,0.58183 0.104129,0.87629 -0.06952,0.83311 -0.206208,1.65738 -0.417769,2.46697 -0.163298,0.65908 -0.281713,1.32838 -0.33328,2.00608 0.04094,0.76428 0.107683,1.52641 0.191281,2.28722 z" /><circle
         id="path31"
         style="fill:#ff2a7f;stroke:#000000;stroke-width:0.264583"
         cx="296.40579"
         cy="104.32615"
         r="0.036187869" /><path
         sodipodi:type="star"
         style="fill:url(#linearGradient4894);fill-opacity:1;stroke-width:0.264583"
         id="path32"
         inkscape:flatsided="false"
         sodipodi:sides="5"
         sodipodi:cx="161.92288"
         sodipodi:cy="70.637497"
         sodipodi:r1="6.6103249"
         sodipodi:r2="3.3051624"
         sodipodi:arg1="1.4056476"
         sodipodi:arg2="2.0339662"
         inkscape:rounded="0"
         inkscape:randomized="0"
         d="m 163.00961,77.157881 -2.56343,-3.563451 -4.38873,0.09152 2.5969,-3.539136 -1.44324,-4.145653 4.16841,1.376145 3.49676,-2.653674 -0.0207,4.38964 3.60435,2.505593 -4.18118,1.336802 z"
         inkscape:transform-center-x="-0.33581826"
         inkscape:transform-center-y="0.30325916"
         transform="translate(-0.81504803,2.1734614)" /></g><use
       xlink:href="#FlowSymbols.svg:PunchedTape"
       style="fill:#c83771;stroke:#000000"
       id="use1"
       transform="matrix(0.3503735,0,0,0.26332037,67.278903,151.99611)" /><use
       xlink:href="#FlowSymbols.svg:PunchedTape"
       style="fill:#c83771;stroke:#000000"
       id="use22"
       transform="matrix(0.3503735,0,0,0.26332037,68.047337,167.74902)" /><use
       xlink:href="#LogicSymbols.svg:Buffer"
       style="fill:#000000;stroke:#000000;stroke-width:2"
       id="use23"
       transform="matrix(0.19693154,0,0,0.30495228,113.51263,173.01889)" /><text
       xml:space="preserve"
       style="font-style:normal;font-variant:normal;font-weight:normal;font-stretch:normal;font-size:9.08051px;line-height:0px;font-family:'Showcard Gothic';-inkscape-font-specification:'Showcard Gothic';writing-mode:lr-tb;direction:ltr;fill:#ffffff;stroke-width:1.51436;stroke-dasharray:none;paint-order:stroke fill markers"
       x="73.837402"
       y="185.08173"
       id="text23"
       transform="scale(1.05729,0.94581432)"><tspan
         sodipodi:role="line"
         id="tspan23"
         style="font-style:normal;font-variant:normal;font-weight:normal;font-stretch:normal;font-size:9.08051px;font-family:'Showcard Gothic';-inkscape-font-specification:'Showcard Gothic';fill:#ffffff;stroke-width:1.51436"
         x="73.837402"
         y="185.08173">LOGIN</tspan></text><text
       xml:space="preserve"
       style="font-style:normal;font-variant:normal;font-weight:bold;font-stretch:normal;font-size:7.6203px;line-height:0px;font-family:'Segoe Print';-inkscape-font-specification:'Segoe Print Bold';writing-mode:lr-tb;direction:ltr;fill:#ffffff;stroke-width:1.62337;stroke-dasharray:none;paint-order:stroke fill markers"
       x="84.165421"
       y="173.46895"
       id="text24"
       transform="scale(0.90917348,1.0999001)"><tspan
         sodipodi:role="line"
         id="tspan24"
         style="font-style:normal;font-variant:normal;font-weight:bold;font-stretch:normal;font-size:7.6203px;font-family:'Segoe Print';-inkscape-font-specification:'Segoe Print Bold';fill:#ffffff;stroke-width:1.62337"
         x="84.165421"
         y="173.46895">REGISTER</tspan></text><path
       style="fill:#000000;stroke-width:1.059;stroke-dasharray:none;paint-order:stroke fill markers"
       id="path25"
       d="m 51.429186,56.307947 c -1.059725,0.209942 -2.055468,0.609925 -3.01921,1.087321 -0.71896,0.433419 -1.570665,0.957204 -1.493033,1.953908 0.05345,0.686298 0.467598,0.955273 0.896567,1.374254 1.118335,0.723265 2.208307,1.488199 3.427888,2.032066 1.294562,0.569309 2.099683,-1.261478 0.805122,-1.830784 v 0 c -1.036942,-0.447363 -1.932342,-1.130382 -2.904738,-1.696506 -0.06331,-0.0404 -0.12404,-0.157244 -0.189918,-0.121192 -0.07214,0.03948 -0.0021,0.168791 -0.03492,0.244231 -0.261146,0.601769 -0.258466,0.277675 0.04957,0.05129 0.106799,-0.07849 0.222428,-0.144198 0.333642,-0.216297 0.785985,-0.392205 1.593914,-0.725797 2.457826,-0.905502 1.394973,-0.232495 1.066173,-2.205284 -0.328798,-1.972789 z" /><text
       xml:space="preserve"
       style="font-style:normal;font-variant:normal;font-weight:normal;font-stretch:normal;font-size:9.65167px;line-height:0px;font-family:'Showcard Gothic';-inkscape-font-specification:'Showcard Gothic';writing-mode:lr-tb;direction:ltr;fill:#000000;stroke-width:1.44866;stroke-dasharray:none;paint-order:stroke fill markers"
       x="101.39417"
       y="76.73632"
       id="text33"
       transform="scale(1.367953,0.73101926)"><tspan
         sodipodi:role="line"
         id="tspan33"
         style="stroke-width:1.44866"
         x="101.39417"
         y="76.73632">_</tspan><tspan
         sodipodi:role="line"
         style="stroke-width:1.44866"
         x="101.39417"
         y="76.73632"
         id="tspan35">_</tspan></text><text
       xml:space="preserve"
       style="font-style:normal;font-variant:normal;font-weight:normal;font-stretch:normal;font-size:9.65167px;line-height:0px;font-family:'Showcard Gothic';-inkscape-font-specification:'Showcard Gothic';writing-mode:lr-tb;direction:ltr;fill:#000000;stroke-width:1.44866;stroke-dasharray:none;paint-order:stroke fill markers"
       x="101.39417"
       y="79.364273"
       id="text37"
       transform="scale(1.367953,0.73101926)"><tspan
         sodipodi:role="line"
         id="tspan36"
         style="stroke-width:1.44866"
         x="101.39417"
         y="79.364273">_</tspan><tspan
         sodipodi:role="line"
         style="stroke-width:1.44866"
         x="101.39417"
         y="79.364273"
         id="tspan37">_</tspan></text><use
       xlink:href="#FlowSymbols.svg:Extract"
       style="fill:#000000;stroke:#000000"
       id="use1-14"
       transform="matrix(-3.9852942e-4,-0.06782237,0.0539278,-4.0462299e-4,59.981645,217.87905)"
       inkscape:transform-center-x="2.8430936"
       inkscape:transform-center-y="-10.348102" /><text
       xml:space="preserve"
       style="font-style:normal;font-variant:normal;font-weight:normal;font-stretch:normal;font-size:11.7626px;line-height:0px;font-family:'Showcard Gothic';-inkscape-font-specification:'Showcard Gothic';writing-mode:lr-tb;direction:ltr;fill:#000000;stroke-width:1.7655;stroke-dasharray:none;paint-order:stroke fill markers"
       x="106.74613"
       y="-252.91869"
       id="text39"
       transform="scale(1.1877876,-0.84190136)"><tspan
         sodipodi:role="line"
         id="tspan38"
         style="stroke-width:1.7655"
         x="106.74613"
         y="-252.91869">_</tspan><tspan
         sodipodi:role="line"
         style="stroke-width:1.7655"
         x="106.74613"
         y="-252.91869"
         id="tspan39">_</tspan></text><text
       xml:space="preserve"
       style="font-style:normal;font-variant:normal;font-weight:normal;font-stretch:normal;font-size:11.7626px;line-height:0px;font-family:'Showcard Gothic';-inkscape-font-specification:'Showcard Gothic';writing-mode:lr-tb;direction:ltr;fill:#000000;stroke-width:1.7655;stroke-dasharray:none;paint-order:stroke fill markers"
       x="107.0696"
       y="-256.11325"
       id="text41"
       transform="scale(1.1877876,-0.84190136)"><tspan
         sodipodi:role="line"
         id="tspan40"
         style="stroke-width:1.7655"
         x="107.0696"
         y="-256.11325">_</tspan><tspan
         sodipodi:role="line"
         style="stroke-width:1.7655"
         x="107.0696"
         y="-256.11325"
         id="tspan41">_</tspan></text><rect
       style="fill:#000000;stroke-width:1.059;stroke-dasharray:none;paint-order:stroke fill markers"
       id="rect41"
       width="5.7632599"
       height="4.9948254"
       x="94.517456"
       y="210.5511" /><circle
       id="path46"
       style="fill:#e9afc6;stroke:#000000;stroke-width:0.264583"
       cx="45.721863"
       cy="54.943077"
       r="0.051209982" /><circle
       id="path47"
       style="fill:#e9afc6;stroke:#000000;stroke-width:0.264583"
       cx="-24.20569"
       cy="42.648125"
       r="0.051209982" /><circle
       id="path48"
       style="fill:#e9afc6;stroke:#000000;stroke-width:0.264583"
       cx="132.55498"
       cy="127.56016"
       r="0.051209982" /></g></svg>
